<?xml version="1.0" encoding="UTF-8" standalone="no"?>
<!-- Created with Inkscape (http://www.inkscape.org/) -->

<svg
   xmlns:dc="http://purl.org/dc/elements/1.1/"
   xmlns:cc="http://creativecommons.org/ns#"
   xmlns:rdf="http://www.w3.org/1999/02/22-rdf-syntax-ns#"
   xmlns:svg="http://www.w3.org/2000/svg"
   xmlns="http://www.w3.org/2000/svg"
   xmlns:sodipodi="http://sodipodi.sourceforge.net/DTD/sodipodi-0.dtd"
   xmlns:inkscape="http://www.inkscape.org/namespaces/inkscape"
   width="210mm"
   height="297mm"
   viewBox="0 0 210 297"
   version="1.1"
   id="svg4562"
   inkscape:version="0.92.4 (5da689c313, 2019-01-14)"
   sodipodi:docname="i.svg">
  <defs
     id="defs4556" />
  <sodipodi:namedview
     id="base"
     pagecolor="#ffffff"
     bordercolor="#666666"
     borderopacity="1.0"
     inkscape:pageopacity="0.0"
     inkscape:pageshadow="2"
     inkscape:zoom="0.35"
     inkscape:cx="-155.71429"
     inkscape:cy="560"
     inkscape:document-units="mm"
     inkscape:current-layer="layer1"
     showgrid="false"
     inkscape:window-width="1366"
     inkscape:window-height="706"
     inkscape:window-x="-8"
     inkscape:window-y="-8"
     inkscape:window-maximized="1" />
  <metadata
     id="metadata4559">
    <rdf:RDF>
      <cc:Work
         rdf:about="">
        <dc:format>image/svg+xml</dc:format>
        <dc:type
           rdf:resource="http://purl.org/dc/dcmitype/StillImage" />
        <dc:title></dc:title>
      </cc:Work>
    </rdf:RDF>
  </metadata>
  <g
     inkscape:label="Layer 1"
     inkscape:groupmode="layer"
     id="layer1">
    <g
       aria-label="i"
       transform="scale(0.92853975,1.0769598)"
       style="font-style:normal;font-variant:normal;font-weight:normal;font-stretch:normal;font-size:203.31362915px;line-height:1.25;font-family:Elephant;-inkscape-font-specification:Elephant;letter-spacing:0px;word-spacing:0px;fill:none;fill-opacity:1;stroke:#000000;stroke-width:2.00000002;stroke-opacity:1;stroke-miterlimit:4;stroke-dasharray:none"
       id="text5113">
      <path
         d="M 139.60371,202.07056 H 73.730093 v -3.25302 l 4.879527,-0.20332 q 5.896096,-0.60994 7.115977,-2.84639 1.219882,-2.23645 1.219882,-9.75905 l 0.203314,-9.35243 V 128.0644 l -0.203314,-8.33586 q -0.406627,-4.87953 -1.219882,-7.31929 -0.813254,-2.43977 -7.31929,-3.04971 l -5.489468,-0.40663 v -3.25301 h 53.268171 v 70.95645 l 0.20331,9.35243 q 0,7.31929 1.21989,9.75905 1.21988,2.23645 7.11597,2.84639 l 4.87953,0.20332 z M 86.742166,71.74652 q 0,-7.929231 5.692781,-13.418699 5.896095,-5.692782 14.028643,-5.692782 8.33586,0 14.02864,5.489468 5.89609,5.286155 5.89609,13.622013 0,8.132546 -5.89609,13.825327 -5.69278,5.489468 -14.02864,5.489468 -8.132548,0 -14.028643,-5.489468 -5.692781,-5.692781 -5.692781,-13.825327 z"
         style="font-style:normal;font-variant:normal;font-weight:normal;font-stretch:normal;font-size:203.31362915px;font-family:Elephant;-inkscape-font-specification:Elephant;fill:none;stroke:#000000;stroke-width:2.00000002;stroke-opacity:1;stroke-miterlimit:4;stroke-dasharray:none"
         id="path5115" />
    </g>
  </g>
</svg>
