<?xml version="1.0" encoding="UTF-8" standalone="no"?>
<!-- Created with Inkscape (http://www.inkscape.org/) -->

<svg
   xmlns:dc="http://purl.org/dc/elements/1.1/"
   xmlns:cc="http://creativecommons.org/ns#"
   xmlns:rdf="http://www.w3.org/1999/02/22-rdf-syntax-ns#"
   xmlns:svg="http://www.w3.org/2000/svg"
   xmlns="http://www.w3.org/2000/svg"
   xmlns:sodipodi="http://sodipodi.sourceforge.net/DTD/sodipodi-0.dtd"
   xmlns:inkscape="http://www.inkscape.org/namespaces/inkscape"
   width="800"
   height="500"
   viewBox="0 0 211.66666 132.29167"
   version="1.1"
   id="svg8"
   inkscape:version="0.92.4 (5da689c313, 2019-01-14)"
   sodipodi:docname="payroll_design.svg">
  <defs
     id="defs2">
    <inkscape:perspective
       sodipodi:type="inkscape:persp3d"
       inkscape:vp_x="144.66476 : -53.245703 : 1"
       inkscape:vp_y="-965.0124 : 296.56278 : 0"
       inkscape:vp_z="200.16461 : 149.03922 : 1"
       inkscape:persp3d-origin="193.69186 : 41.357967 : 1"
       id="perspective834" />
  </defs>
  <sodipodi:namedview
     id="base"
     pagecolor="#ffffff"
     bordercolor="#666666"
     borderopacity="1.0"
     inkscape:pageopacity="0.0"
     inkscape:pageshadow="2"
     inkscape:zoom="0.98994949"
     inkscape:cx="408.42489"
     inkscape:cy="253.10071"
     inkscape:document-units="mm"
     inkscape:current-layer="layer1"
     showgrid="false"
     units="px"
     inkscape:window-width="1366"
     inkscape:window-height="706"
     inkscape:window-x="-8"
     inkscape:window-y="-8"
     inkscape:window-maximized="1" />
  <metadata
     id="metadata5">
    <rdf:RDF>
      <cc:Work
         rdf:about="">
        <dc:format>image/svg+xml</dc:format>
        <dc:type
           rdf:resource="http://purl.org/dc/dcmitype/StillImage" />
        <dc:title />
      </cc:Work>
    </rdf:RDF>
  </metadata>
  <g
     inkscape:label="Layer 1"
     inkscape:groupmode="layer"
     id="layer1"
     transform="translate(0,-164.70832)">
    <g
       id="g992">
      <path
         inkscape:connector-curvature="0"
         id="path928-2"
         d="m 56.068703,235.98773 94.750037,-0.26705"
         style="fill:none;stroke:#000000;stroke-width:0.52057451;stroke-linecap:butt;stroke-linejoin:miter;stroke-miterlimit:4;stroke-dasharray:none;stroke-opacity:1" />
      <path
         inkscape:connector-curvature="0"
         id="path1071"
         d="M 37.150463,194.90302 149.13639,194.63575"
         style="fill:none;stroke:#000000;stroke-width:0.5291667;stroke-linecap:butt;stroke-linejoin:miter;stroke-miterlimit:4;stroke-dasharray:none;stroke-opacity:1" />
      <path
         inkscape:connector-curvature="0"
         id="path930"
         d="m 177.67253,238.86385 0.15933,36.76812"
         style="fill:none;stroke:#000000;stroke-width:0.5291667;stroke-linecap:butt;stroke-linejoin:miter;stroke-miterlimit:4;stroke-dasharray:none;stroke-opacity:1" />
      <path
         inkscape:connector-curvature="0"
         id="path928"
         d="M 48.108306,215.74996 149.1366,215.48285"
         style="fill:none;stroke:#000000;stroke-width:0.53761816;stroke-linecap:butt;stroke-linejoin:miter;stroke-miterlimit:4;stroke-dasharray:none;stroke-opacity:1" />
      <g
         transform="translate(-1.0690781,13.363476)"
         id="g1098">
        <path
           style="fill:#ffffff;fill-opacity:1;stroke:#000000;stroke-width:0.57433188;stroke-miterlimit:4;stroke-dasharray:none;stroke-opacity:1"
           d="m 4.023592,173.83334 h 47.045673 v 14.676 H 4.023592 Z"
           id="rect825" />
        <g
           aria-label="EPF / SOCSO / EIS
"
           style="font-style:normal;font-weight:normal;font-size:10.58333302px;line-height:1.25;font-family:sans-serif;text-align:center;letter-spacing:0px;word-spacing:0px;text-anchor:middle;fill:#000000;fill-opacity:1;stroke:none;stroke-width:0.26458332"
           id="text819">
          <path
             d="M 10.031817,182.8759 H 8.0040339 v -3.07785 h 2.0277831 v 0.3638 H 8.4133113 v 0.84336 h 1.6185057 v 0.36381 H 8.4133113 v 1.14308 h 1.6185057 z"
             style="font-size:4.23333311px;text-align:center;text-anchor:middle;stroke-width:0.26458332"
             id="path4581" />
          <path
             d="m 12.696254,180.72823 q 0,0.20464 -0.07235,0.38034 -0.07028,0.17363 -0.198438,0.30179 -0.159163,0.15916 -0.376204,0.23978 -0.217041,0.0785 -0.54777,0.0785 h -0.409278 v 1.14722 H 10.68294 v -3.07785 h 0.835091 q 0.276986,0 0.469222,0.0475 0.192237,0.0455 0.341065,0.1447 0.1757,0.11782 0.270784,0.29352 0.09715,0.1757 0.09715,0.44442 z m -0.425814,0.0103 q 0,-0.15916 -0.05581,-0.27698 -0.05581,-0.11782 -0.169499,-0.19224 -0.09922,-0.0641 -0.227376,-0.0909 -0.126091,-0.0289 -0.320394,-0.0289 h -0.405144 v 1.2299 h 0.345199 q 0.248047,0 0.403076,-0.0434 0.155029,-0.0455 0.252181,-0.14262 0.09715,-0.0992 0.136426,-0.20878 0.04134,-0.10955 0.04134,-0.24598 z"
             style="font-size:4.23333311px;text-align:center;text-anchor:middle;stroke-width:0.26458332"
             id="path4583" />
          <path
             d="M 15.203594,180.16185 H 13.6471 v 0.86817 h 1.337386 v 0.3638 H 13.6471 v 1.48208 h -0.409277 v -3.07785 h 1.965771 z"
             style="font-size:4.23333311px;text-align:center;text-anchor:middle;stroke-width:0.26458332"
             id="path4585" />
          <path
             d="m 18.521221,179.65956 -1.48208,3.84473 H 16.68154 l 1.475879,-3.84473 z"
             style="font-size:4.23333311px;text-align:center;text-anchor:middle;stroke-width:0.26458332"
             id="path4587" />
          <path
             d="m 22.808298,181.9974 q 0,0.17983 -0.08475,0.35553 -0.08268,0.1757 -0.233577,0.29766 -0.165365,0.13229 -0.38654,0.20671 -0.219108,0.0744 -0.529166,0.0744 -0.332797,0 -0.599447,-0.062 -0.264583,-0.062 -0.539502,-0.18397 v -0.51263 h 0.02894 q 0.233577,0.1943 0.539502,0.29972 0.305924,0.10542 0.574642,0.10542 0.380338,0 0.591178,-0.14262 0.212907,-0.14263 0.212907,-0.38034 0,-0.20464 -0.101286,-0.30179 -0.09922,-0.0971 -0.303857,-0.1509 -0.155029,-0.0413 -0.33693,-0.0682 -0.179834,-0.0269 -0.382406,-0.0682 -0.409277,-0.0868 -0.607715,-0.29559 -0.19637,-0.21084 -0.19637,-0.54777 0,-0.38654 0.326595,-0.63252 0.326595,-0.24805 0.82889,-0.24805 0.324528,0 0.595312,0.062 0.270785,0.062 0.479557,0.15297 v 0.48369 h -0.02894 q -0.1757,-0.14883 -0.463021,-0.24598 -0.285254,-0.0992 -0.584977,-0.0992 -0.328662,0 -0.529167,0.13642 -0.198438,0.13643 -0.198438,0.3514 0,0.19224 0.09922,0.30179 0.09922,0.10956 0.349333,0.16744 0.132292,0.0289 0.376204,0.0703 0.243913,0.0413 0.413412,0.0847 0.343131,0.091 0.516764,0.27491 0.173633,0.18397 0.173633,0.5147 z"
             style="font-size:4.23333311px;text-align:center;text-anchor:middle;stroke-width:0.26458332"
             id="path4589" />
          <path
             d="m 25.760055,180.15152 q 0.188103,0.2067 0.287321,0.50643 0.101286,0.29972 0.101286,0.68006 0,0.38034 -0.103353,0.68213 -0.101286,0.29972 -0.285254,0.50023 -0.190169,0.20877 -0.450618,0.31419 -0.258382,0.10542 -0.591179,0.10542 -0.324527,0 -0.591178,-0.10749 -0.264583,-0.10748 -0.450618,-0.31212 -0.186035,-0.20464 -0.287321,-0.5023 -0.09922,-0.29765 -0.09922,-0.68006 0,-0.3762 0.09922,-0.67386 0.09922,-0.29972 0.289388,-0.51263 0.181901,-0.20257 0.450618,-0.31006 0.270785,-0.10749 0.589111,-0.10749 0.33073,0 0.593246,0.10956 0.264583,0.10748 0.448551,0.30799 z m -0.03721,1.18649 q 0,-0.59945 -0.268717,-0.92397 -0.268718,-0.3266 -0.733805,-0.3266 -0.469222,0 -0.73794,0.3266 -0.26665,0.32452 -0.26665,0.92397 0,0.60565 0.272851,0.92811 0.272852,0.32039 0.731739,0.32039 0.458886,0 0.729671,-0.32039 0.272851,-0.32246 0.272851,-0.92811 z"
             style="font-size:4.23333311px;text-align:center;text-anchor:middle;stroke-width:0.26458332"
             id="path4591" />
          <path
             d="m 29.174834,182.65266 q -0.113688,0.0496 -0.206706,0.093 -0.09095,0.0434 -0.239779,0.091 -0.12609,0.0393 -0.274918,0.0661 -0.146761,0.0289 -0.324528,0.0289 -0.334863,0 -0.609782,-0.093 -0.272852,-0.0951 -0.475423,-0.29559 -0.198438,-0.19637 -0.310059,-0.49816 -0.111621,-0.30385 -0.111621,-0.70486 0,-0.38034 0.107487,-0.68007 0.107487,-0.29972 0.310059,-0.50642 0.19637,-0.20051 0.473356,-0.30593 0.279052,-0.10542 0.61805,-0.10542 0.248047,0 0.494026,0.0599 0.248047,0.0599 0.549838,0.21084 v 0.48575 h -0.03101 q -0.254248,-0.2129 -0.504362,-0.31005 -0.250114,-0.0972 -0.535368,-0.0972 -0.233577,0 -0.42168,0.0765 -0.186035,0.0744 -0.332796,0.23357 -0.142627,0.15503 -0.223242,0.39274 -0.07855,0.23565 -0.07855,0.54571 0,0.32452 0.08682,0.5581 0.08888,0.23358 0.227377,0.38034 0.144694,0.15296 0.33693,0.22738 0.194303,0.0723 0.409277,0.0723 0.295589,0 0.553972,-0.10128 0.258382,-0.10129 0.483691,-0.30386 h 0.02894 z"
             style="font-size:4.23333311px;text-align:center;text-anchor:middle;stroke-width:0.26458332"
             id="path4593" />
          <path
             d="m 31.9943,181.9974 q 0,0.17983 -0.08475,0.35553 -0.08268,0.1757 -0.233577,0.29766 -0.165365,0.13229 -0.38654,0.20671 -0.219108,0.0744 -0.529167,0.0744 -0.332796,0 -0.599446,-0.062 -0.264583,-0.062 -0.539502,-0.18397 v -0.51263 h 0.02894 q 0.233577,0.1943 0.539502,0.29972 0.305924,0.10542 0.574642,0.10542 0.380338,0 0.591178,-0.14262 0.212907,-0.14263 0.212907,-0.38034 0,-0.20464 -0.101286,-0.30179 -0.09922,-0.0971 -0.303857,-0.1509 -0.15503,-0.0413 -0.336931,-0.0682 -0.179834,-0.0269 -0.382405,-0.0682 -0.409278,-0.0868 -0.607715,-0.29559 -0.196371,-0.21084 -0.196371,-0.54777 0,-0.38654 0.326596,-0.63252 0.326595,-0.24805 0.828889,-0.24805 0.324528,0 0.595313,0.062 0.270784,0.062 0.479557,0.15297 v 0.48369 h -0.02894 q -0.175699,-0.14883 -0.46302,-0.24598 -0.285254,-0.0992 -0.584978,-0.0992 -0.328662,0 -0.529166,0.13642 -0.198438,0.13643 -0.198438,0.3514 0,0.19224 0.09922,0.30179 0.09922,0.10956 0.349333,0.16744 0.132291,0.0289 0.376204,0.0703 0.243913,0.0413 0.413411,0.0847 0.343132,0.091 0.516765,0.27491 0.173633,0.18397 0.173633,0.5147 z"
             style="font-size:4.23333311px;text-align:center;text-anchor:middle;stroke-width:0.26458332"
             id="path4595" />
          <path
             d="m 34.946058,180.15152 q 0.188102,0.2067 0.287321,0.50643 0.101286,0.29972 0.101286,0.68006 0,0.38034 -0.103353,0.68213 -0.101286,0.29972 -0.285254,0.50023 -0.190169,0.20877 -0.450618,0.31419 -0.258383,0.10542 -0.591179,0.10542 -0.324528,0 -0.591178,-0.10749 -0.264583,-0.10748 -0.450619,-0.31212 -0.186035,-0.20464 -0.287321,-0.5023 -0.09922,-0.29765 -0.09922,-0.68006 0,-0.3762 0.09922,-0.67386 0.09922,-0.29972 0.289388,-0.51263 0.181901,-0.20257 0.450619,-0.31006 0.270784,-0.10749 0.589111,-0.10749 0.330729,0 0.593246,0.10956 0.264583,0.10748 0.448551,0.30799 z m -0.03721,1.18649 q 0,-0.59945 -0.268717,-0.92397 -0.268718,-0.3266 -0.733806,-0.3266 -0.469222,0 -0.737939,0.3266 -0.266651,0.32452 -0.266651,0.92397 0,0.60565 0.272852,0.92811 0.272852,0.32039 0.731738,0.32039 0.458887,0 0.729671,-0.32039 0.272852,-0.32246 0.272852,-0.92811 z"
             style="font-size:4.23333311px;text-align:center;text-anchor:middle;stroke-width:0.26458332"
             id="path4597" />
          <path
             d="m 38.83626,179.65956 -1.48208,3.84473 h -0.357601 l 1.475879,-3.84473 z"
             style="font-size:4.23333311px;text-align:center;text-anchor:middle;stroke-width:0.26458332"
             id="path4599" />
          <path
             d="m 42.914561,182.8759 h -2.027783 v -3.07785 h 2.027783 v 0.3638 h -1.618506 v 0.84336 h 1.618506 v 0.36381 h -1.618506 v 1.14308 h 1.618506 z"
             style="font-size:4.23333311px;text-align:center;text-anchor:middle;stroke-width:0.26458332"
             id="path4601" />
          <path
             d="m 44.650892,182.8759 h -1.21543 v -0.31419 h 0.403077 v -2.44947 h -0.403077 v -0.31419 h 1.21543 v 0.31419 h -0.403076 v 2.44947 h 0.403076 z"
             style="font-size:4.23333311px;text-align:center;text-anchor:middle;stroke-width:0.26458332"
             id="path4603" />
          <path
             d="m 47.588177,181.9974 q 0,0.17983 -0.08475,0.35553 -0.08268,0.1757 -0.233577,0.29766 -0.165365,0.13229 -0.38654,0.20671 -0.219108,0.0744 -0.529167,0.0744 -0.332796,0 -0.599446,-0.062 -0.264584,-0.062 -0.539502,-0.18397 v -0.51263 h 0.02894 q 0.233577,0.1943 0.539501,0.29972 0.305925,0.10542 0.574642,0.10542 0.380339,0 0.591179,-0.14262 0.212907,-0.14263 0.212907,-0.38034 0,-0.20464 -0.101286,-0.30179 -0.09922,-0.0971 -0.303858,-0.1509 -0.155029,-0.0413 -0.33693,-0.0682 -0.179834,-0.0269 -0.382405,-0.0682 -0.409278,-0.0868 -0.607715,-0.29559 -0.196371,-0.21084 -0.196371,-0.54777 0,-0.38654 0.326595,-0.63252 0.326595,-0.24805 0.82889,-0.24805 0.324528,0 0.595313,0.062 0.270784,0.062 0.479557,0.15297 v 0.48369 h -0.02894 q -0.1757,-0.14883 -0.463021,-0.24598 -0.285254,-0.0992 -0.584977,-0.0992 -0.328662,0 -0.529166,0.13642 -0.198438,0.13643 -0.198438,0.3514 0,0.19224 0.09922,0.30179 0.09922,0.10956 0.349332,0.16744 0.132292,0.0289 0.376205,0.0703 0.243913,0.0413 0.413411,0.0847 0.343132,0.091 0.516765,0.27491 0.173632,0.18397 0.173632,0.5147 z"
             style="font-size:4.23333311px;text-align:center;text-anchor:middle;stroke-width:0.26458332"
             id="path4605" />
        </g>
      </g>
      <g
         transform="matrix(2.615061,0,0,2.9798041,-234.63272,-425.79432)"
         id="g973">
        <path
           style="fill:#ffffff;fill-opacity:1;stroke:#000000;stroke-width:0.52899998;stroke-miterlimit:4;stroke-dasharray:none;stroke-opacity:1"
           d="m 146.19641,203.99019 h 19.51068 v 20.57975 h -19.51068 z"
           id="rect880" />
        <g
           aria-label="DB"
           style="font-style:normal;font-weight:normal;font-size:10.58333302px;line-height:1.25;font-family:sans-serif;letter-spacing:0px;word-spacing:0px;fill:#000000;fill-opacity:1;stroke:none;stroke-width:0.26458332"
           id="text884">
          <path
             d="m 155.869,213.51411 q 0,1.04903 -0.45992,1.90169 -0.45475,0.85266 -1.21439,1.32292 -0.5271,0.32556 -1.17823,0.47025 -0.64595,0.1447 -1.70532,0.1447 h -1.94303 v -7.69462 h 1.92236 q 1.12655,0 1.78801,0.16536 0.66662,0.1602 1.12654,0.44442 0.78548,0.49093 1.22473,1.30741 0.43925,0.81649 0.43925,1.93787 z m -1.0697,-0.0155 q 0,-0.90434 -0.31523,-1.52446 -0.31522,-0.62012 -0.94051,-0.97668 -0.45475,-0.25838 -0.96635,-0.35657 -0.51159,-0.10335 -1.22473,-0.10335 h -0.96118 v 5.93762 h 0.96118 q 0.73898,0 1.28675,-0.10852 0.55293,-0.10852 1.01285,-0.40308 0.57361,-0.3669 0.85783,-0.96635 0.28939,-0.59944 0.28939,-1.49861 z"
             style="stroke-width:0.26458332"
             id="path4609" />
          <path
             d="m 163.33625,214.98689 q 0,0.57361 -0.21704,1.01286 -0.21704,0.43925 -0.58395,0.72347 -0.43408,0.34106 -0.95601,0.48575 -0.51677,0.1447 -1.31775,0.1447 h -2.72852 v -7.69462 h 2.27893 q 0.84233,0 1.26091,0.062 0.41858,0.062 0.80098,0.25838 0.42375,0.22221 0.61495,0.57361 0.19121,0.34623 0.19121,0.83199 0,0.54777 -0.27906,0.93534 -0.27905,0.38241 -0.74414,0.61495 v 0.0413 q 0.78032,0.1602 1.2299,0.6873 0.44959,0.52193 0.44959,1.32292 z m -1.72083,-3.46749 q 0,-0.27905 -0.093,-0.47026 -0.093,-0.1912 -0.29972,-0.31005 -0.24288,-0.13953 -0.58911,-0.17054 -0.34623,-0.0362 -0.85783,-0.0362 h -1.21956 v 2.22209 h 1.32291 q 0.48059,0 0.76482,-0.0465 0.28422,-0.0517 0.52709,-0.20671 0.24288,-0.15503 0.34107,-0.39791 0.10335,-0.24804 0.10335,-0.58394 z m 0.65629,3.50883 q 0,-0.46509 -0.13952,-0.73897 -0.13953,-0.27389 -0.50643,-0.46509 -0.24805,-0.12919 -0.60462,-0.16537 -0.3514,-0.0413 -0.85783,-0.0413 h -1.60713 v 2.86288 h 1.35392 q 0.67179,0 1.10071,-0.0672 0.42891,-0.0724 0.7028,-0.25838 0.28939,-0.20154 0.42374,-0.45993 0.13436,-0.25838 0.13436,-0.66662 z"
             style="stroke-width:0.26458332"
             id="path4611" />
        </g>
      </g>
      <g
         aria-label="UI"
         style="font-style:normal;font-weight:normal;font-size:10.58333302px;line-height:1.25;font-family:sans-serif;letter-spacing:0px;word-spacing:0px;fill:#000000;fill-opacity:1;stroke:none;stroke-width:0.26458332"
         id="text895">
        <path
           d="m 65.893023,176.31115 q 0,0.83716 -0.186035,1.46244 -0.180868,0.62012 -0.599447,1.03353 -0.397908,0.39274 -0.930176,0.57361 -0.532267,0.18086 -1.240234,0.18086 -0.72347,0 -1.260905,-0.1912 -0.537435,-0.1912 -0.904337,-0.56327 -0.418579,-0.42375 -0.604615,-1.02319 -0.180867,-0.59945 -0.180867,-1.47278 v -4.60437 H 61.0096 v 4.65604 q 0,0.62529 0.08268,0.98702 0.08785,0.36174 0.289388,0.65629 0.227376,0.3359 0.614949,0.50643 0.392741,0.17054 0.940511,0.17054 0.552938,0 0.940511,-0.16537 0.387573,-0.17053 0.620117,-0.5116 0.201538,-0.29455 0.284221,-0.67179 0.08785,-0.38241 0.08785,-0.94568 v -4.68188 h 1.023193 z"
           style="stroke-width:0.26458332"
           id="path4614" />
        <path
           d="m 70.564573,179.4014 h -3.038575 v -0.78548 h 1.007691 v -6.12366 h -1.007691 v -0.78548 h 3.038575 v 0.78548 h -1.007691 v 6.12366 h 1.007691 z"
           style="stroke-width:0.26458332"
           id="path4616" />
      </g>
      <g
         aria-label="API"
         style="font-style:normal;font-weight:normal;font-size:10.58333302px;line-height:1.25;font-family:sans-serif;letter-spacing:0px;word-spacing:0px;fill:#000000;fill-opacity:1;stroke:none;stroke-width:0.26458332"
         id="text899">
        <path
           d="m 104.92098,179.13412 h -1.09037 l -0.75448,-2.14457 h -3.327959 l -0.754475,2.14457 h -1.038697 l 2.800861,-7.69462 h 1.36426 z m -2.16007,-3.02307 -1.34876,-3.77754 -1.35392,3.77754 z"
           style="stroke-width:0.26458332"
           id="path4619" />
        <path
           d="m 111.12215,173.76494 q 0,0.5116 -0.18086,0.95085 -0.1757,0.43408 -0.4961,0.75448 -0.39791,0.3979 -0.94051,0.59944 -0.5426,0.19637 -1.36942,0.19637 h -1.0232 v 2.86804 h -1.02319 v -7.69462 h 2.08773 q 0.69246,0 1.17305,0.11886 0.48059,0.11369 0.85266,0.36174 0.43925,0.29455 0.67696,0.7338 0.24288,0.43925 0.24288,1.11104 z m -1.06453,0.0258 q 0,-0.39791 -0.13953,-0.69246 -0.13952,-0.29456 -0.42374,-0.48059 -0.24805,-0.1602 -0.56844,-0.22738 -0.31523,-0.0724 -0.80099,-0.0724 h -1.01286 v 3.07475 h 0.863 q 0.62012,0 1.00769,-0.10852 0.38757,-0.11369 0.63045,-0.35657 0.24288,-0.24804 0.34107,-0.52193 0.10335,-0.27388 0.10335,-0.61495 z"
           style="stroke-width:0.26458332"
           id="path4621" />
        <path
           d="m 115.18909,179.13412 h -3.03858 v -0.78548 h 1.0077 v -6.12365 h -1.0077 v -0.78549 h 3.03858 v 0.78549 h -1.00769 v 6.12365 h 1.00769 z"
           style="stroke-width:0.26458332"
           id="path4623" />
      </g>
      <g
         aria-label="INPUT"
         style="font-style:normal;font-weight:normal;font-size:10.58333302px;line-height:1.25;font-family:sans-serif;letter-spacing:0px;word-spacing:0px;fill:#000000;fill-opacity:1;stroke:none;stroke-width:0.26458332"
         id="text903">
        <path
           d="M 14.170054,219.38362 H 11.13148 v -0.78548 h 1.00769 v -6.12366 H 11.13148 V 211.689 h 3.038574 v 0.78548 h -1.007691 v 6.12366 h 1.007691 z"
           style="stroke-width:0.26458332"
           id="path4626" />
        <path
           d="m 21.792327,219.38362 h -1.266072 l -3.648356,-6.8833 v 6.8833 H 15.921885 V 211.689 h 1.586466 l 3.327962,6.28385 V 211.689 h 0.956014 z"
           style="stroke-width:0.26458332"
           id="path4628" />
        <path
           d="m 28.871998,214.01444 q 0,0.5116 -0.180867,0.95085 -0.1757,0.43408 -0.496094,0.75447 -0.397908,0.39791 -0.940511,0.59945 -0.542603,0.19637 -1.369425,0.19637 h -1.023194 v 2.86804 H 23.838714 V 211.689 h 2.087728 q 0.692464,0 1.173055,0.11886 0.480591,0.11368 0.852661,0.36173 0.439249,0.29456 0.676961,0.73381 0.242879,0.43925 0.242879,1.11104 z m -1.064534,0.0258 q 0,-0.39791 -0.139527,-0.69247 -0.139526,-0.29455 -0.423746,-0.48059 -0.248047,-0.16019 -0.568441,-0.22737 -0.315226,-0.0724 -0.800985,-0.0724 h -1.012858 v 3.07475 h 0.862997 q 0.620117,0 1.00769,-0.10852 0.387573,-0.11369 0.630453,-0.35657 0.242879,-0.24805 0.341064,-0.52193 0.103353,-0.27389 0.103353,-0.61495 z"
           style="stroke-width:0.26458332"
           id="path4630" />
        <path
           d="m 36.018848,216.29337 q 0,0.83716 -0.186035,1.46244 -0.180868,0.62012 -0.599447,1.03353 -0.397908,0.39274 -0.930176,0.57361 -0.532267,0.18087 -1.240234,0.18087 -0.72347,0 -1.260905,-0.1912 -0.537435,-0.19121 -0.904337,-0.56328 -0.418579,-0.42374 -0.604615,-1.02319 -0.180867,-0.59945 -0.180867,-1.47278 V 211.689 h 1.023193 v 4.65605 q 0,0.62528 0.08268,0.98702 0.08785,0.36173 0.289388,0.65629 0.227377,0.33589 0.61495,0.50643 0.392741,0.17053 0.940511,0.17053 0.552938,0 0.940511,-0.16537 0.387573,-0.17053 0.620117,-0.51159 0.201538,-0.29456 0.284221,-0.6718 0.08785,-0.3824 0.08785,-0.94567 V 211.689 h 1.023193 z"
           style="stroke-width:0.26458332"
           id="path4632" />
        <path
           d="m 43.465422,212.59851 h -2.749186 v 6.78511 h -1.023194 v -6.78511 H 36.943856 V 211.689 h 6.521566 z"
           style="stroke-width:0.26458332"
           id="path4634" />
      </g>
      <g
         aria-label="OUTPUT"
         style="font-style:normal;font-weight:normal;font-size:10.58333302px;line-height:1.25;font-family:sans-serif;letter-spacing:0px;word-spacing:0px;fill:#000000;fill-opacity:1;stroke:none;stroke-width:0.26458332"
         id="text907">
        <path
           d="m 162.58774,280.56731 q 0.47026,0.51677 0.71831,1.26607 0.25321,0.74931 0.25321,1.70016 0,0.95085 -0.25838,1.70532 -0.25322,0.74931 -0.71314,1.25057 -0.47542,0.52193 -1.12654,0.78548 -0.64596,0.26355 -1.47795,0.26355 -0.81132,0 -1.47795,-0.26872 -0.66145,-0.26871 -1.12654,-0.78031 -0.46509,-0.5116 -0.7183,-1.25574 -0.24805,-0.74414 -0.24805,-1.70015 0,-0.94051 0.24805,-1.68465 0.24804,-0.74931 0.72347,-1.28158 0.45475,-0.50643 1.12654,-0.77514 0.67696,-0.26872 1.47278,-0.26872 0.82682,0 1.48311,0.27388 0.66146,0.26872 1.12138,0.76998 z m -0.093,2.96623 q 0,-1.49862 -0.6718,-2.30994 -0.67179,-0.81649 -1.83451,-0.81649 -1.17306,0 -1.84485,0.81649 -0.66663,0.81132 -0.66663,2.30994 0,1.51412 0.68213,2.32027 0.68213,0.80099 1.82935,0.80099 1.14722,0 1.82418,-0.80099 0.68213,-0.80615 0.68213,-2.32027 z"
           style="stroke-width:0.26458332"
           id="path4637" />
        <path
           d="m 170.97483,284.28801 q 0,0.83716 -0.18604,1.46245 -0.18087,0.62011 -0.59944,1.03353 -0.39791,0.39274 -0.93018,0.5736 -0.53227,0.18087 -1.24023,0.18087 -0.72347,0 -1.26091,-0.1912 -0.53743,-0.1912 -0.90434,-0.56327 -0.41858,-0.42375 -0.60461,-1.0232 -0.18087,-0.59944 -0.18087,-1.47278 v -4.60437 h 1.02319 v 4.65605 q 0,0.62529 0.0827,0.98702 0.0879,0.36174 0.28938,0.65629 0.22738,0.3359 0.61495,0.50643 0.39275,0.17053 0.94052,0.17053 0.55293,0 0.94051,-0.16536 0.38757,-0.17053 0.62011,-0.5116 0.20154,-0.29455 0.28422,-0.67179 0.0879,-0.38241 0.0879,-0.94568 v -4.68189 h 1.0232 z"
           style="stroke-width:0.26458332"
           id="path4639" />
        <path
           d="m 178.4214,280.59315 h -2.74918 v 6.78512 h -1.0232 v -6.78512 h -2.74918 v -0.90951 h 6.52156 z"
           style="stroke-width:0.26458332"
           id="path4641" />
        <path
           d="m 184.49855,282.00908 q 0,0.5116 -0.18087,0.95085 -0.1757,0.43408 -0.49609,0.75448 -0.39791,0.3979 -0.94051,0.59944 -0.54261,0.19637 -1.36943,0.19637 h -1.02319 v 2.86805 h -1.0232 v -7.69463 h 2.08773 q 0.69247,0 1.17306,0.11886 0.48059,0.11369 0.85266,0.36174 0.43925,0.29455 0.67696,0.7338 0.24288,0.43925 0.24288,1.11104 z m -1.06454,0.0258 q 0,-0.39791 -0.13952,-0.69246 -0.13953,-0.29456 -0.42375,-0.48059 -0.24805,-0.1602 -0.56844,-0.22738 -0.31523,-0.0724 -0.80098,-0.0724 h -1.01286 v 3.07475 h 0.86299 q 0.62012,0 1.00769,-0.10852 0.38758,-0.11369 0.63046,-0.35657 0.24288,-0.24804 0.34106,-0.52193 0.10335,-0.27388 0.10335,-0.61495 z"
           style="stroke-width:0.26458332"
           id="path4643" />
        <path
           d="m 191.6454,284.28801 q 0,0.83716 -0.18604,1.46245 -0.18086,0.62011 -0.59944,1.03353 -0.39791,0.39274 -0.93018,0.5736 -0.53227,0.18087 -1.24023,0.18087 -0.72347,0 -1.26091,-0.1912 -0.53743,-0.1912 -0.90433,-0.56327 -0.41858,-0.42375 -0.60462,-1.0232 -0.18087,-0.59944 -0.18087,-1.47278 v -4.60437 h 1.0232 v 4.65605 q 0,0.62529 0.0827,0.98702 0.0879,0.36174 0.28939,0.65629 0.22737,0.3359 0.61495,0.50643 0.39274,0.17053 0.94051,0.17053 0.55294,0 0.94051,-0.16536 0.38757,-0.17053 0.62012,-0.5116 0.20153,-0.29455 0.28422,-0.67179 0.0879,-0.38241 0.0879,-0.94568 v -4.68189 h 1.02319 z"
           style="stroke-width:0.26458332"
           id="path4645" />
        <path
           d="m 199.09197,280.59315 h -2.74918 v 6.78512 h -1.0232 v -6.78512 h -2.74918 v -0.90951 h 6.52156 z"
           style="stroke-width:0.26458332"
           id="path4647" />
      </g>
      <path
         inkscape:connector-curvature="0"
         id="path911"
         d="m 106.93113,183.38395 0.53428,69.44277 96.4378,-0.36937"
         style="fill:none;stroke:#000000;stroke-width:0.62193888;stroke-linecap:butt;stroke-linejoin:miter;stroke-miterlimit:4;stroke-dasharray:none;stroke-opacity:1" />
      <path
         inkscape:connector-curvature="0"
         id="path911-2"
         d="M 65.345709,183.53313 66.109207,264.91046 203.9202,264.4776"
         style="fill:none;stroke:#000000;stroke-width:0.80483013;stroke-linecap:butt;stroke-linejoin:miter;stroke-miterlimit:4;stroke-dasharray:none;stroke-opacity:1" />
      <path
         style="fill:#ffff00;fill-opacity:1;stroke:#000000;stroke-width:0.52916664;stroke-miterlimit:4;stroke-dasharray:none;stroke-opacity:1"
         d="m 68.955532,194.76939 a 4.1426806,4.1426768 0 0 1 -4.142681,4.14268 4.1426806,4.1426768 0 0 1 -4.142681,-4.14268 4.1426806,4.1426768 0 0 1 4.142681,-4.14267 4.1426806,4.1426768 0 0 1 4.142681,4.14267 z"
         id="path932" />
      <path
         style="fill:#ffff00;fill-opacity:1;stroke:#000000;stroke-width:0.52916664;stroke-miterlimit:4;stroke-dasharray:none;stroke-opacity:1"
         d="m 111.31776,215.21552 a 4.1426806,4.1426768 0 0 1 -4.14268,4.14267 4.1426806,4.1426768 0 0 1 -4.14268,-4.14267 4.1426806,4.1426768 0 0 1 4.14268,-4.14268 4.1426806,4.1426768 0 0 1 4.14268,4.14268 z"
         id="path932-5" />
      <path
         style="fill:#ffff00;fill-opacity:1;stroke:#000000;stroke-width:0.52916664;stroke-miterlimit:4;stroke-dasharray:none;stroke-opacity:1"
         d="m 69.623714,215.75005 a 4.1426806,4.1426768 0 0 1 -4.142681,4.14267 4.1426806,4.1426768 0 0 1 -4.14268,-4.14267 4.1426806,4.1426768 0 0 1 4.14268,-4.14268 4.1426806,4.1426768 0 0 1 4.142681,4.14268 z"
         id="path932-8" />
      <path
         style="fill:#ffff00;fill-opacity:1;stroke:#000000;stroke-width:0.52916664;stroke-miterlimit:4;stroke-dasharray:none;stroke-opacity:1"
         d="m 181.89488,252.36601 a 4.1426806,4.1426768 0 0 1 -4.14268,4.14268 4.1426806,4.1426768 0 0 1 -4.14268,-4.14268 4.1426806,4.1426768 0 0 1 4.14268,-4.14267 4.1426806,4.1426768 0 0 1 4.14268,4.14267 z"
         id="path932-6" />
      <path
         style="fill:#ffff00;fill-opacity:1;stroke:#000000;stroke-width:0.52916664;stroke-miterlimit:4;stroke-dasharray:none;stroke-opacity:1"
         d="m 181.89488,265.46219 a 4.1426806,4.1426768 0 0 1 -4.14268,4.14268 4.1426806,4.1426768 0 0 1 -4.14268,-4.14268 4.1426806,4.1426768 0 0 1 4.14268,-4.14268 4.1426806,4.1426768 0 0 1 4.14268,4.14268 z"
         id="path932-9" />
      <g
         aria-label="1"
         style="font-style:normal;font-weight:normal;font-size:5.64444447px;line-height:1.25;font-family:sans-serif;letter-spacing:0px;word-spacing:0px;fill:#000000;fill-opacity:1;stroke:none;stroke-width:0.26458332"
         id="text994">
        <path
           d="M 66.330448,196.82817 H 64.10905 v -0.41892 h 0.854384 v -2.75057 H 64.10905 v -0.37482 q 0.173633,0 0.372071,-0.0276 0.198437,-0.0303 0.300412,-0.0854 0.12678,-0.0689 0.198438,-0.17364 0.07441,-0.10748 0.08544,-0.28663 h 0.427192 v 3.69866 h 0.837847 z"
           style="font-size:5.64444447px;stroke-width:0.26458332"
           id="path4655" />
      </g>
      <g
         aria-label="2"
         style="font-style:normal;font-weight:normal;font-size:5.64444447px;line-height:1.25;font-family:sans-serif;letter-spacing:0px;word-spacing:0px;fill:#000000;fill-opacity:1;stroke:none;stroke-width:0.26458332"
         id="text994-7">
        <path
           d="m 66.826002,217.54158 h -2.778125 v -0.57602 q 0.289388,-0.24805 0.578776,-0.49609 0.292144,-0.24805 0.542947,-0.49334 0.529167,-0.51263 0.724848,-0.81304 0.195682,-0.30317 0.195682,-0.65319 0,-0.31971 -0.212218,-0.49885 -0.209462,-0.1819 -0.587044,-0.1819 -0.250803,0 -0.542947,0.0882 -0.292145,0.0882 -0.570508,0.2701 h -0.02756 v -0.57878 q 0.195681,-0.0965 0.520898,-0.17639 0.327974,-0.0799 0.633898,-0.0799 0.631141,0 0.989431,0.30593 0.35829,0.30317 0.35829,0.82407 0,0.23426 -0.06063,0.43821 -0.05788,0.2012 -0.173633,0.3831 -0.107487,0.17087 -0.253559,0.33624 -0.143316,0.16536 -0.350022,0.36656 -0.2949,0.28938 -0.609093,0.56224 -0.314192,0.27009 -0.587044,0.5016 h 2.207617 z"
           style="font-size:5.64444447px;stroke-width:0.26458332"
           id="path4658" />
      </g>
      <g
         aria-label="6"
         style="font-style:normal;font-weight:normal;font-size:5.64444447px;line-height:1.25;font-family:sans-serif;letter-spacing:0px;word-spacing:0px;fill:#000000;fill-opacity:1;stroke:none;stroke-width:0.26458332"
         id="text994-3">
        <path
           d="m 108.84795,215.94312 q 0,0.62563 -0.41341,1.02251 -0.41066,0.39412 -1.00873,0.39412 -0.30317,0 -0.55121,-0.0937 -0.24805,-0.0937 -0.43822,-0.27836 -0.23702,-0.22876 -0.36656,-0.60634 -0.12678,-0.37758 -0.12678,-0.90951 0,-0.5457 0.11576,-0.96738 0.11851,-0.42168 0.37482,-0.74965 0.24254,-0.31144 0.62563,-0.48507 0.3831,-0.17639 0.89297,-0.17639 0.16261,0 0.27285,0.0138 0.11025,0.0138 0.22325,0.0496 v 0.52641 h -0.0276 q -0.0772,-0.0413 -0.23427,-0.0772 -0.15434,-0.0386 -0.31695,-0.0386 -0.59256,0 -0.94533,0.37207 -0.35278,0.36932 -0.41066,1.00046 0.23151,-0.14056 0.45475,-0.21222 0.226,-0.0744 0.5209,-0.0744 0.26183,0 0.46027,0.0496 0.20119,0.0469 0.41065,0.19292 0.24254,0.16812 0.3638,0.42444 0.12403,0.25631 0.12403,0.62287 z m -0.55949,0.0221 q 0,-0.25631 -0.0772,-0.42443 -0.0744,-0.16813 -0.24804,-0.29215 -0.12678,-0.0882 -0.28112,-0.11575 -0.15434,-0.0276 -0.32246,-0.0276 -0.23427,0 -0.43546,0.0551 -0.2012,0.0551 -0.41342,0.17087 -0.006,0.0606 -0.008,0.11851 -0.003,0.0551 -0.003,0.14056 0,0.43546 0.0882,0.68902 0.091,0.25081 0.24805,0.39688 0.12678,0.12127 0.27285,0.17914 0.14883,0.0551 0.32246,0.0551 0.39964,0 0.62839,-0.24254 0.22875,-0.24529 0.22875,-0.7028 z"
           style="font-size:5.64444447px;stroke-width:0.26458332"
           id="path4661" />
      </g>
      <path
         style="fill:#ffff00;fill-opacity:1;stroke:#000000;stroke-width:0.52916664;stroke-miterlimit:4;stroke-dasharray:none;stroke-opacity:1"
         d="m 194.17131,233.12257 a 4.1426806,4.1426768 0 0 1 -4.14268,4.14268 4.1426806,4.1426768 0 0 1 -4.14269,-4.14268 4.1426806,4.1426768 0 0 1 4.14269,-4.14267 4.1426806,4.1426768 0 0 1 4.14268,4.14267 z"
         id="path932-0" />
      <g
         aria-label="9
"
         style="font-style:normal;font-weight:normal;font-size:5.64444447px;line-height:1.25;font-family:sans-serif;letter-spacing:0px;word-spacing:0px;fill:#000000;fill-opacity:1;stroke:none;stroke-width:0.26458332"
         id="text994-8">
        <path
           d="m 191.36809,232.88278 q 0,0.53744 -0.12402,0.97565 -0.12127,0.43822 -0.36932,0.7469 -0.2508,0.31419 -0.62838,0.48507 -0.37759,0.17088 -0.88746,0.17088 -0.14332,0 -0.2701,-0.0165 -0.12677,-0.0138 -0.22599,-0.0469 v -0.52641 h 0.0276 q 0.0799,0.0413 0.226,0.0799 0.14607,0.0358 0.32521,0.0358 0.6091,0 0.9536,-0.3638 0.34727,-0.36656 0.40239,-1.00872 -0.25631,0.15434 -0.48231,0.22048 -0.226,0.0661 -0.49334,0.0661 -0.25356,0 -0.46026,-0.0496 -0.20395,-0.0496 -0.41066,-0.19293 -0.24253,-0.16812 -0.36656,-0.42719 -0.12126,-0.25907 -0.12126,-0.62012 0,-0.62838 0.41341,-1.0225 0.41341,-0.39412 1.00872,-0.39412 0.29766,0 0.55122,0.0937 0.25356,0.0909 0.44372,0.2756 0.23427,0.22876 0.36105,0.58981 0.12678,0.35829 0.12678,0.92879 z m -0.55673,-0.11851 q 0,-0.42719 -0.0882,-0.68626 -0.0882,-0.25907 -0.24254,-0.40239 -0.12953,-0.12402 -0.27836,-0.17639 -0.14883,-0.0551 -0.32246,-0.0551 -0.39688,0 -0.62839,0.24805 -0.22875,0.24804 -0.22875,0.69729 0,0.26182 0.0744,0.42719 0.0744,0.16536 0.25081,0.28939 0.12402,0.0854 0.27285,0.11575 0.14883,0.0276 0.33073,0.0276 0.21497,0 0.43546,-0.0579 0.22048,-0.0579 0.41341,-0.16812 0.003,-0.0579 0.006,-0.113 0.006,-0.0579 0.006,-0.14607 z"
           style="font-size:5.64444447px;stroke-width:0.26458332"
           id="path4665" />
      </g>
      <g
         aria-label="7"
         style="font-style:normal;font-weight:normal;font-size:5.64444447px;line-height:1.25;font-family:sans-serif;letter-spacing:0px;word-spacing:0px;fill:#000000;fill-opacity:1;stroke:none;stroke-width:0.26458332"
         id="text994-9">
        <path
           d="m 179.15503,250.66832 -1.8576,3.4892 h -0.5898 l 1.97611,-3.62149 h -2.33715 v -0.48231 h 2.80844 z"
           style="font-size:5.64444447px;stroke-width:0.26458332"
           id="path4668" />
      </g>
      <g
         aria-label="3"
         style="font-style:normal;font-weight:normal;font-size:5.64444447px;line-height:1.25;font-family:sans-serif;letter-spacing:0px;word-spacing:0px;fill:#000000;fill-opacity:1;stroke:none;stroke-width:0.26458332"
         id="text994-2">
        <path
           d="m 178.80089,265.54489 q 0.13229,0.11851 0.21773,0.29766 0.0854,0.17914 0.0854,0.46302 0,0.28112 -0.10197,0.51538 -0.10198,0.23427 -0.28663,0.4079 -0.20671,0.19293 -0.48783,0.28663 -0.27836,0.0909 -0.61185,0.0909 -0.34175,0 -0.67248,-0.0827 -0.33073,-0.0799 -0.54295,-0.17639 v -0.57602 h 0.0413 q 0.23427,0.15434 0.55122,0.25632 0.31695,0.10197 0.61185,0.10197 0.17363,0 0.36931,-0.0579 0.19568,-0.0579 0.31695,-0.17088 0.12678,-0.12127 0.18742,-0.26734 0.0634,-0.14607 0.0634,-0.36931 0,-0.22049 -0.0717,-0.36381 -0.0689,-0.14607 -0.19293,-0.22875 -0.12402,-0.0854 -0.30041,-0.11576 -0.17639,-0.0331 -0.38034,-0.0331 h -0.24805 v -0.45751 h 0.19293 q 0.41892,0 0.66697,-0.17363 0.2508,-0.17639 0.2508,-0.51263 0,-0.14883 -0.0634,-0.25907 -0.0634,-0.113 -0.17639,-0.18466 -0.11851,-0.0717 -0.25356,-0.0992 -0.13504,-0.0276 -0.30592,-0.0276 -0.26183,0 -0.55673,0.0937 -0.2949,0.0937 -0.55672,0.26458 h -0.0276 v -0.57602 q 0.19569,-0.0965 0.5209,-0.17639 0.32798,-0.0827 0.6339,-0.0827 0.30041,0 0.52917,0.0551 0.22875,0.0551 0.41341,0.17639 0.19844,0.13229 0.30041,0.31971 0.10198,0.18741 0.10198,0.43821 0,0.34175 -0.24254,0.59807 -0.23978,0.25356 -0.56775,0.3197 v 0.0386 q 0.13229,0.022 0.30317,0.0937 0.17087,0.0689 0.28939,0.17363 z"
           style="font-size:5.64444447px;stroke-width:0.26458332"
           id="path4671" />
      </g>
      <g
         style="font-style:normal;font-weight:normal;font-size:10.58333302px;line-height:1.25;font-family:sans-serif;letter-spacing:0px;word-spacing:0px;fill:#000000;fill-opacity:1;stroke:none;stroke-width:0.26458332"
         id="text1048" />
      <path
         style="fill:#ffff00;fill-opacity:1;stroke:#000000;stroke-width:0.52916664;stroke-miterlimit:4;stroke-dasharray:none;stroke-opacity:1"
         d="m 111.05049,194.76939 a 4.1426806,4.1426768 0 0 1 -4.14268,4.14268 4.1426806,4.1426768 0 0 1 -4.14268,-4.14268 4.1426806,4.1426768 0 0 1 4.14268,-4.14267 4.1426806,4.1426768 0 0 1 4.14268,4.14267 z"
         id="path932-2" />
      <g
         aria-label="5"
         style="font-style:normal;font-weight:normal;font-size:5.64444447px;line-height:1.25;font-family:sans-serif;letter-spacing:0px;word-spacing:0px;fill:#000000;fill-opacity:1;stroke:none;stroke-width:0.26458332"
         id="text994-4">
        <path
           d="m 108.6266,195.52455 q 0,0.28663 -0.10473,0.54846 -0.10473,0.26182 -0.28663,0.44097 -0.19844,0.19292 -0.47405,0.29765 -0.27285,0.10198 -0.63389,0.10198 -0.33625,0 -0.64768,-0.0717 -0.31144,-0.0689 -0.52641,-0.16812 v -0.58153 h 0.0386 q 0.226,0.14331 0.52917,0.24529 0.30317,0.0992 0.59531,0.0992 0.19568,0 0.37758,-0.0551 0.18466,-0.0551 0.32798,-0.19293 0.12126,-0.11851 0.1819,-0.28387 0.0634,-0.16537 0.0634,-0.3831 0,-0.21222 -0.0744,-0.35829 -0.0717,-0.14607 -0.20119,-0.23427 -0.14332,-0.10473 -0.35002,-0.14607 -0.20395,-0.0441 -0.45751,-0.0441 -0.24254,0 -0.46853,0.0331 -0.22325,0.0331 -0.38585,0.0661 v -2.11391 h 2.46944 v 0.48232 h -1.93752 v 1.0914 q 0.11851,-0.011 0.24253,-0.0165 0.12403,-0.006 0.21498,-0.006 0.33348,0 0.58429,0.0579 0.2508,0.0551 0.46026,0.19844 0.22049,0.15158 0.34175,0.39136 0.12127,0.23978 0.12127,0.60083 z"
           style="font-size:5.64444447px;stroke-width:0.26458332"
           id="path4676" />
      </g>
      <g
         aria-label="PROCESS"
         style="font-style:normal;font-weight:normal;font-size:10.58333302px;line-height:1.25;font-family:sans-serif;letter-spacing:0px;word-spacing:0px;fill:#000000;fill-opacity:1;stroke:none;stroke-width:0.26458332"
         id="text903-7">
        <path
           d="m 6.9470508,234.25225 q 0,0.51159 -0.1808675,0.95084 -0.1756998,0.43409 -0.4960937,0.75448 -0.3979085,0.39791 -0.940511,0.59945 -0.5426026,0.19637 -1.3694255,0.19637 H 2.9369598 v 2.86804 H 1.9137665 v -7.69462 h 2.0877278 q 0.6924642,0 1.173055,0.11885 0.4805908,0.11369 0.8526611,0.36174 0.4392496,0.29456 0.6769612,0.73381 0.2428792,0.43924 0.2428792,1.11104 z m -1.0645344,0.0258 q 0,-0.39791 -0.1395264,-0.69247 -0.1395264,-0.29455 -0.4237467,-0.48059 -0.2480469,-0.1602 -0.5684408,-0.22737 -0.3152262,-0.0724 -0.8009846,-0.0724 H 2.9369598 v 3.07475 h 0.8629964 q 0.6201172,0 1.0076904,-0.10852 0.3875732,-0.11369 0.6304525,-0.35657 0.2428792,-0.24805 0.3410644,-0.52193 0.1033529,-0.27389 0.1033529,-0.61495 z"
           style="stroke-width:0.26458332"
           id="path4679" />
        <path
           d="m 14.66751,239.62143 h -1.328084 l -2.573487,-3.05925 H 9.3241669 v 3.05925 H 8.3009735 v -7.69462 h 2.1549075 q 0.697632,0 1.162719,0.093 0.465088,0.0878 0.837159,0.32039 0.418579,0.26355 0.651123,0.66663 0.237711,0.3979 0.237711,1.01285 0,0.83199 -0.418579,1.39527 -0.418579,0.5581 -1.152384,0.84232 z m -2.392619,-5.52938 q 0,-0.33073 -0.118856,-0.58394 -0.113688,-0.25838 -0.382405,-0.43408 -0.222209,-0.14987 -0.5271,-0.20671 -0.304891,-0.062 -0.718302,-0.062 H 9.3241669 v 2.90421 h 1.0335281 q 0.485759,0 0.847494,-0.0827 0.361735,-0.0878 0.614949,-0.32039 0.232544,-0.21704 0.341065,-0.4961 0.113688,-0.28422 0.113688,-0.7183 z"
           style="stroke-width:0.26458332"
           id="path4681" />
        <path
           d="m 21.395781,232.81048 q 0.470255,0.51676 0.718302,1.26607 0.253215,0.74931 0.253215,1.70015 0,0.95085 -0.258382,1.70533 -0.253215,0.7493 -0.713135,1.25056 -0.475423,0.52194 -1.126546,0.78549 -0.645956,0.26355 -1.477946,0.26355 -0.81132,0 -1.477946,-0.26872 -0.661458,-0.26872 -1.126546,-0.78032 -0.465088,-0.51159 -0.718303,-1.25573 -0.248046,-0.74414 -0.248046,-1.70016 0,-0.94051 0.248046,-1.68465 0.248047,-0.74931 0.72347,-1.28157 0.454753,-0.50643 1.126547,-0.77515 0.676961,-0.26872 1.472778,-0.26872 0.826823,0 1.483113,0.27389 0.661459,0.26871 1.121379,0.76998 z m -0.09302,2.96622 q 0,-1.49861 -0.671793,-2.30993 -0.671794,-0.81649 -1.834513,-0.81649 -1.173055,0 -1.844849,0.81649 -0.666626,0.81132 -0.666626,2.30993 0,1.51412 0.682129,2.32027 0.682129,0.80099 1.829346,0.80099 1.147216,0 1.824178,-0.80099 0.682128,-0.80615 0.682128,-2.32027 z"
           style="stroke-width:0.26458332"
           id="path4683" />
        <path
           d="m 29.932728,239.06332 q -0.28422,0.12403 -0.516764,0.23255 -0.227377,0.10852 -0.599447,0.22737 -0.315226,0.0982 -0.687297,0.16537 -0.366902,0.0724 -0.811319,0.0724 -0.837159,0 -1.524455,-0.23255 -0.682129,-0.23771 -1.188558,-0.73897 -0.496094,-0.49093 -0.775147,-1.2454 -0.279052,-0.75965 -0.279052,-1.76217 0,-0.95085 0.268717,-1.70015 0.268718,-0.74931 0.775147,-1.26608 0.490926,-0.50126 1.18339,-0.76481 0.697632,-0.26355 1.545125,-0.26355 0.620117,0 1.235067,0.14986 0.620117,0.14987 1.374593,0.5271 v 1.2144 h -0.07752 q -0.63562,-0.53227 -1.260905,-0.77515 -0.625284,-0.24288 -1.338419,-0.24288 -0.583944,0 -1.054199,0.19121 -0.465088,0.18603 -0.831991,0.58394 -0.356567,0.38757 -0.558105,0.98185 -0.196371,0.58911 -0.196371,1.36426 0,0.81132 0.217041,1.39526 0.222209,0.58395 0.568441,0.95085 0.361735,0.38241 0.842326,0.56844 0.485758,0.18087 1.023193,0.18087 0.738973,0 1.384928,-0.25322 0.645956,-0.25321 1.209229,-0.75964 h 0.07235 z"
           style="stroke-width:0.26458332"
           id="path4685" />
        <path
           d="m 36.459461,239.62143 h -5.069458 v -7.69462 h 5.069458 v 0.9095 h -4.046265 v 2.1084 h 4.046265 v 0.90951 h -4.046265 v 2.8577 h 4.046265 z"
           style="stroke-width:0.26458332"
           id="path4687" />
        <path
           d="m 43.678656,237.42518 q 0,0.44959 -0.211873,0.88884 -0.206706,0.43925 -0.583944,0.74414 -0.413411,0.33073 -0.966349,0.51676 -0.54777,0.18604 -1.322917,0.18604 -0.83199,0 -1.498616,-0.15503 -0.661458,-0.15503 -1.348755,-0.45992 v -1.28158 h 0.07235 q 0.583944,0.48576 1.348755,0.74931 0.764811,0.26355 1.436605,0.26355 0.950846,0 1.477946,-0.35657 0.532267,-0.35657 0.532267,-0.95084 0,-0.5116 -0.253215,-0.75448 -0.248046,-0.24288 -0.759643,-0.37724 -0.387573,-0.10335 -0.842326,-0.17053 -0.449585,-0.0672 -0.956014,-0.17053 -1.023193,-0.21704 -1.519287,-0.73898 -0.490926,-0.5271 -0.490926,-1.36942 0,-0.96635 0.816488,-1.5813 0.816487,-0.62012 2.072224,-0.62012 0.81132,0 1.488282,0.15503 0.676961,0.15503 1.198893,0.38241 v 1.20923 h -0.07235 q -0.43925,-0.37207 -1.157552,-0.61495 -0.713135,-0.24805 -1.462443,-0.24805 -0.821656,0 -1.322917,0.34106 -0.496094,0.34107 -0.496094,0.8785 0,0.48059 0.248047,0.75448 0.248047,0.27388 0.873332,0.41858 0.330729,0.0724 0.940511,0.1757 0.609782,0.10335 1.033529,0.21187 0.857828,0.22738 1.29191,0.6873 0.434082,0.45992 0.434082,1.28674 z"
           style="stroke-width:0.26458332"
           id="path4689" />
        <path
           d="m 50.913359,237.42518 q 0,0.44959 -0.211873,0.88884 -0.206706,0.43925 -0.583944,0.74414 -0.413411,0.33073 -0.966349,0.51676 -0.54777,0.18604 -1.322916,0.18604 -0.831991,0 -1.498617,-0.15503 -0.661458,-0.15503 -1.348755,-0.45992 v -1.28158 h 0.07235 q 0.583944,0.48576 1.348755,0.74931 0.764811,0.26355 1.436605,0.26355 0.950846,0 1.477946,-0.35657 0.532267,-0.35657 0.532267,-0.95084 0,-0.5116 -0.253215,-0.75448 -0.248046,-0.24288 -0.759643,-0.37724 -0.387573,-0.10335 -0.842326,-0.17053 -0.449585,-0.0672 -0.956014,-0.17053 -1.023193,-0.21704 -1.519287,-0.73898 -0.490926,-0.5271 -0.490926,-1.36942 0,-0.96635 0.816488,-1.5813 0.816487,-0.62012 2.072224,-0.62012 0.81132,0 1.488282,0.15503 0.676961,0.15503 1.198893,0.38241 v 1.20923 h -0.07235 q -0.43925,-0.37207 -1.157552,-0.61495 -0.713135,-0.24805 -1.462443,-0.24805 -0.821655,0 -1.322917,0.34106 -0.496094,0.34107 -0.496094,0.8785 0,0.48059 0.248047,0.75448 0.248047,0.27388 0.873332,0.41858 0.330729,0.0724 0.940511,0.1757 0.609782,0.10335 1.033529,0.21187 0.857828,0.22738 1.29191,0.6873 0.434082,0.45992 0.434082,1.28674 z"
           style="stroke-width:0.26458332"
           id="path4691" />
      </g>
      <path
         style="fill:#ffff00;fill-opacity:1;stroke:#000000;stroke-width:0.52916664;stroke-miterlimit:4;stroke-dasharray:none;stroke-opacity:1"
         d="m 111.93074,235.45332 a 4.1426806,4.1426768 0 0 1 -4.14268,4.14268 4.1426806,4.1426768 0 0 1 -4.14268,-4.14268 4.1426806,4.1426768 0 0 1 4.14268,-4.14267 4.1426806,4.1426768 0 0 1 4.14268,4.14267 z"
         id="path932-5-4" />
      <path
         style="fill:#ffff00;fill-opacity:1;stroke:#000000;stroke-width:0.52916664;stroke-miterlimit:4;stroke-dasharray:none;stroke-opacity:1"
         d="m 70.236675,235.98785 a 4.1426806,4.1426768 0 0 1 -4.142681,4.14268 4.1426806,4.1426768 0 0 1 -4.142681,-4.14268 4.1426806,4.1426768 0 0 1 4.142681,-4.14267 4.1426806,4.1426768 0 0 1 4.142681,4.14267 z"
         id="path932-8-6" />
      <g
         aria-label="4"
         style="font-style:normal;font-weight:normal;font-size:5.64444447px;line-height:1.25;font-family:sans-serif;letter-spacing:0px;word-spacing:0px;fill:#000000;fill-opacity:1;stroke:none;stroke-width:0.26458332"
         id="text994-7-0">
        <path
           d="m 67.532677,236.62459 h -0.609093 v 1.1548 h -0.529166 v -1.1548 h -1.965083 v -0.6339 l 1.987131,-2.3151 h 0.507118 v 2.50803 h 0.609093 z m -1.138259,-0.44097 v -1.85208 l -1.590256,1.85208 z"
           style="font-size:5.64444447px;stroke-width:0.26458332"
           id="path4696" />
      </g>
      <g
         aria-label="8"
         style="font-style:normal;font-weight:normal;font-size:5.64444447px;line-height:1.25;font-family:sans-serif;letter-spacing:0px;word-spacing:0px;fill:#000000;fill-opacity:1;stroke:none;stroke-width:0.26458332"
         id="text994-3-8">
        <path
           d="m 109.43061,236.36834 q 0,0.53193 -0.41617,0.8847 -0.41341,0.35278 -1.0418,0.35278 -0.66697,0 -1.06384,-0.34451 -0.39412,-0.34451 -0.39412,-0.88194 0,-0.34176 0.19844,-0.61736 0.19843,-0.27837 0.55948,-0.44098 v -0.0165 q -0.33073,-0.17639 -0.49058,-0.38585 -0.1571,-0.20946 -0.1571,-0.52366 0,-0.46302 0.38034,-0.7717 0.38034,-0.30868 0.96738,-0.30868 0.61461,0 0.98117,0.2949 0.36655,0.2949 0.36655,0.74965 0,0.27837 -0.17363,0.54846 -0.17363,0.26734 -0.50987,0.41893 v 0.0165 q 0.38585,0.16537 0.5898,0.4079 0.20395,0.24254 0.20395,0.61736 z m -0.65319,-2.00366 q 0,-0.2949 -0.22876,-0.46854 -0.226,-0.17639 -0.57877,-0.17639 -0.34727,0 -0.57051,0.16537 -0.22049,0.16536 -0.22049,0.44648 0,0.19844 0.11025,0.34451 0.11299,0.14332 0.33899,0.25632 0.10198,0.0496 0.29215,0.12953 0.19292,0.0799 0.37482,0.1323 0.27285,-0.18191 0.37759,-0.37759 0.10473,-0.19568 0.10473,-0.45199 z m 0.0854,2.05603 q 0,-0.25356 -0.11299,-0.40514 -0.11025,-0.15434 -0.43546,-0.30868 -0.12954,-0.0606 -0.28388,-0.113 -0.15434,-0.0524 -0.41066,-0.14608 -0.24804,0.13505 -0.39963,0.36656 -0.14882,0.23151 -0.14882,0.52366 0,0.37207 0.25631,0.6146 0.25632,0.24254 0.65043,0.24254 0.40239,0 0.64217,-0.20671 0.24253,-0.2067 0.24253,-0.56775 z"
           style="font-size:5.64444447px;stroke-width:0.26458332"
           id="path4699" />
      </g>
    </g>
  </g>
</svg>
