<?xml version="1.0" encoding="UTF-8" standalone="no"?>
<!-- Created with Inkscape (http://www.inkscape.org/) -->

<svg
   xmlns:dc="http://purl.org/dc/elements/1.1/"
   xmlns:cc="http://creativecommons.org/ns#"
   xmlns:rdf="http://www.w3.org/1999/02/22-rdf-syntax-ns#"
   xmlns:svg="http://www.w3.org/2000/svg"
   xmlns="http://www.w3.org/2000/svg"
   xmlns:sodipodi="http://sodipodi.sourceforge.net/DTD/sodipodi-0.dtd"
   xmlns:inkscape="http://www.inkscape.org/namespaces/inkscape"
   width="20"
   height="20"
   viewBox="0 0 5.2916665 5.2916668"
   version="1.1"
   id="svg1741"
   inkscape:version="0.92.4 (5da689c313, 2019-01-14)"
   sodipodi:docname="tomato.svg">
  <defs
     id="defs1735" />
  <sodipodi:namedview
     id="base"
     pagecolor="#ffffff"
     bordercolor="#666666"
     borderopacity="1.0"
     inkscape:pageopacity="0.0"
     inkscape:pageshadow="2"
     inkscape:zoom="22.4"
     inkscape:cx="8.976854"
     inkscape:cy="3.9910185"
     inkscape:document-units="mm"
     inkscape:current-layer="g1842"
     showgrid="false"
     units="px"
     inkscape:window-width="1920"
     inkscape:window-height="1001"
     inkscape:window-x="-9"
     inkscape:window-y="-9"
     inkscape:window-maximized="1" />
  <metadata
     id="metadata1738">
    <rdf:RDF>
      <cc:Work
         rdf:about="">
        <dc:format>image/svg+xml</dc:format>
        <dc:type
           rdf:resource="http://purl.org/dc/dcmitype/StillImage" />
        <dc:title></dc:title>
      </cc:Work>
    </rdf:RDF>
  </metadata>
  <g
     inkscape:label="Layer 1"
     inkscape:groupmode="layer"
     id="layer1"
     transform="translate(0,-291.70832)">
    <g
       id="g1842"
       transform="translate(0.30710566)">
      <g
         id="g6237">
        <path
           sodipodi:nodetypes="ccccccscccccccccccccccsc"
           inkscape:connector-curvature="0"
           id="path6230"
           d="m 2.7048921,293.75175 c 0,0 -0.2834822,0.0354 -0.3071057,0.22443 -0.023623,0.18899 -0.2952939,0.68508 -0.2952939,0.68508 0,0 -0.094494,-0.51972 -0.059059,-0.69689 0.035435,-0.17718 0.1535529,-0.36617 0.1535529,-0.36617 0,0 -0.4606585,-0.0591 -0.5433408,0.0709 -0.082682,0.12993 0.047247,0.16537 -0.2244234,0.30711 -0.2716703,0.14174 -0.3661644,0.0354 -0.3661644,0.0354 v 0 c 0,0 0.2126116,-0.49609 0.3189174,-0.59058 0.1063058,-0.0945 0.6496466,-0.12993 0.6496466,-0.12993 0,0 -0.2716704,-0.11812 -0.531529,-0.0591 l -0.4488468,0.11816 c 0,0 0.4488468,-0.54334 0.6496466,-0.51972 0.2007998,0.0236 0.7087054,0.64964 0.7087054,0.64964 0,0 0.4606585,-0.38978 0.5551526,-0.4016 l 0.094494,-0.0118 0.5669645,0.12993 -0.3307291,0.0945 -0.3897882,0.24804 c 0,0 0.2598587,-0.0827 0.4724704,0.0354 0.2126115,0.11812 0.3071056,0.59059 0.3071056,0.59059 0,0 -0.4488468,-0.41342 -0.5669642,-0.41342 z"
           style="fill:none;stroke:#000000;stroke-width:0.26458332px;stroke-linecap:butt;stroke-linejoin:miter;stroke-opacity:1" />
        <path
           sodipodi:nodetypes="ccscccsccccc"
           inkscape:connector-curvature="0"
           id="path6232"
           d="m 2.1674571,293.45323 c 0,0 -1.54492132,-0.36051 -1.78672656,0.34138 -0.24953859,0.50884 -0.41815829,0.52328 -0.31409116,1.1629 0.12125415,0.74525 0.13095135,0.73432 0.40486902,0.95829 0.22666876,0.24758 0.5291042,0.40415 0.9282746,0.5082 0.2810419,0.15124 1.0270529,0.16056 1.178061,0.13272 0.1510082,-0.0278 0.6225818,-0.19263 0.9245981,-0.24833 0.3020165,-0.0557 0.8363741,-0.56525 0.8592184,-1.15799 0.022846,-0.59274 0.044448,-1.2241 -0.2129847,-1.51295 -0.2574329,-0.28884 -0.7841845,-0.59712 -1.1442829,-0.53074 -0.3600983,0.0664 -0.8369412,0.34645 -0.8369412,0.34645 z"
           style="fill:none;stroke:#000000;stroke-width:0.26458332px;stroke-linecap:butt;stroke-linejoin:miter;stroke-opacity:1" />
        <path
           sodipodi:nodetypes="csccscc"
           inkscape:connector-curvature="0"
           id="path6228"
           d="m 2.5395275,292.3934 c -0.3543527,0.6024 -0.3071057,0.38979 -0.3543527,0.6024 -0.047247,0.21261 0.2244234,0.48428 0.2244234,0.48428 0,0 0.2362351,0.0709 0.2716703,-0.0118 0.035435,-0.0827 -0.1535528,-0.17717 -0.1535528,-0.4016 0,-0.22442 0.2480471,-0.59059 0.2480471,-0.59059 z"
           style="fill:none;stroke:#000000;stroke-width:0.26458332;stroke-linecap:butt;stroke-linejoin:miter;stroke-miterlimit:4;stroke-dasharray:none;stroke-opacity:1" />
      </g>
    </g>
  </g>
</svg>
