<?xml version="1.0" encoding="UTF-8" standalone="no"?>
<!-- Created with Inkscape (http://www.inkscape.org/) -->

<svg
   xmlns:dc="http://purl.org/dc/elements/1.1/"
   xmlns:cc="http://creativecommons.org/ns#"
   xmlns:rdf="http://www.w3.org/1999/02/22-rdf-syntax-ns#"
   xmlns:svg="http://www.w3.org/2000/svg"
   xmlns="http://www.w3.org/2000/svg"
   xmlns:sodipodi="http://sodipodi.sourceforge.net/DTD/sodipodi-0.dtd"
   xmlns:inkscape="http://www.inkscape.org/namespaces/inkscape"
   width="20"
   height="20"
   viewBox="0 0 5.2916665 5.2916668"
   version="1.1"
   id="svg1741"
   inkscape:version="0.92.4 (5da689c313, 2019-01-14)"
   sodipodi:docname="vegetable.svg">
  <defs
     id="defs1735" />
  <sodipodi:namedview
     id="base"
     pagecolor="#ffffff"
     bordercolor="#666666"
     borderopacity="1.0"
     inkscape:pageopacity="0.0"
     inkscape:pageshadow="2"
     inkscape:zoom="22.4"
     inkscape:cx="8.976854"
     inkscape:cy="3.9910185"
     inkscape:document-units="mm"
     inkscape:current-layer="g1842"
     showgrid="false"
     units="px"
     inkscape:window-width="1920"
     inkscape:window-height="1001"
     inkscape:window-x="-9"
     inkscape:window-y="-9"
     inkscape:window-maximized="1" />
  <metadata
     id="metadata1738">
    <rdf:RDF>
      <cc:Work
         rdf:about="">
        <dc:format>image/svg+xml</dc:format>
        <dc:type
           rdf:resource="http://purl.org/dc/dcmitype/StillImage" />
        <dc:title></dc:title>
      </cc:Work>
    </rdf:RDF>
  </metadata>
  <g
     inkscape:label="Layer 1"
     inkscape:groupmode="layer"
     id="layer1"
     transform="translate(0,-291.70832)">
    <g
       id="g1842"
       transform="translate(0.30710566)">
      <g
         id="g6188"
         transform="translate(0.04724702,0.41341146)">
        <g
           transform="translate(-4.1813616,-2.8111979)"
           id="g6179">
          <path
             sodipodi:nodetypes="ccccscccc"
             style="fill:#ffffff;fill-opacity:1;stroke:#000000;stroke-width:0.26458332px;stroke-linecap:butt;stroke-linejoin:miter;stroke-opacity:1"
             d="m 4.5558668,297.86802 c -0.2468345,-0.86438 -0.1802784,-0.44822 -0.010598,-0.92343 0.1696774,-0.47522 0.1729312,-0.0591 0.2867433,-0.46088 0.1138144,-0.4018 -0.2333137,-0.98939 -0.064778,-1.25832 0.1685421,-0.26894 0.7449206,-0.29213 1.020468,-0.46444 0.2755469,-0.1723 0.6915874,-0.1822 0.8206666,-0.0422 0.129088,0.14004 0.029813,0.23554 0.057738,0.56845 0.027924,0.33292 0.3359059,1.14691 0.2522932,1.46907 -0.083616,0.32216 -1.039925,1.17179 -1.039925,1.17179"
             id="path6151-2"
             inkscape:connector-curvature="0" />
          <path
             style="fill:#ffffff;fill-opacity:1;stroke:#000000;stroke-width:0.26458332px;stroke-linecap:butt;stroke-linejoin:miter;stroke-opacity:1"
             d="m 5.4653729,296.92006 c -0.7773922,0.78434 -0.5599653,0.35876 -0.7773922,0.78434 -0.2174247,0.42558 -0.2757584,1.06914 -0.084771,1.26768 0.1909893,0.19856 0.984986,-0.40781 1.2014666,-0.7847 0.2164806,-0.37688 -0.3879949,-1.26827 -0.3879949,-1.26827"
             id="path6149-5"
             inkscape:connector-curvature="0" />
        </g>
        <path
           inkscape:connector-curvature="0"
           id="path6151"
           d="m 1.015811,294.47227 c -0.047247,-0.89769 -0.31891741,-0.47247 -0.047247,-0.89769 0.2716704,-0.42523 0.4252232,-0.0236 0.626023,-0.38979 0.2007999,-0.36616 -0.047247,-0.62602 0.1771764,-0.85045 0.2244233,-0.22442 0.7913875,-0.11811 1.0984934,-0.22442 0.3071055,-0.10631 0.7559521,-0.41341 0.8504462,-0.24805 0.094494,0.16537 -0.023625,0.23624 -0.07087,0.56697 -0.047247,0.33073 0.07087,1.19298 -0.082682,1.48828 -0.1535528,0.29529 -1.2756696,0.9095 -1.2756696,0.9095"
           style="fill:#ffffff;fill-opacity:1;stroke:#000000;stroke-width:0.26458332px;stroke-linecap:butt;stroke-linejoin:miter;stroke-opacity:1" />
        <path
           inkscape:connector-curvature="0"
           id="path6149"
           d="m 2.1143043,293.75175 c -0.9331287,0.59059 -0.6260231,0.22443 -0.9331287,0.59059 -0.30710568,0.36617 -0.50790554,0.98038 -0.36616447,1.21661 0.14174108,0.23624 1.05124627,-0.17717 1.34654017,-0.49609 0.295294,-0.31892 -0.094494,-1.32292 -0.094494,-1.32292"
           style="fill:none;stroke:#000000;stroke-width:0.26458332px;stroke-linecap:butt;stroke-linejoin:miter;stroke-opacity:1" />
        <path
           sodipodi:nodetypes="csccscssc"
           inkscape:connector-curvature="0"
           id="path6147"
           d="m 1.3111049,295.57076 c 0.6023996,-0.48429 0.7559524,-0.0709 1.1339286,-0.27167 0.3779761,-0.2008 1.405599,-0.15355 1.6772692,-0.4016 0.2716704,-0.24804 0.5433409,-1.27567 0.5433409,-1.27567 0,0 -0.342541,-0.42522 -0.342541,-0.56696 0,-0.14174 -0.1299292,-0.23623 -0.2480469,-0.18899 -0.1181176,0.0473 -0.8386347,-0.22442 -1.2166107,0.30711 -0.3779764,0.53153 -0.6023997,1.26386 -0.9567523,1.55915 -0.3543527,0.29529 -0.5905878,0.83863 -0.5905878,0.83863"
           style="fill:#ffffff;fill-opacity:1;stroke:#000000;stroke-width:0.26458332px;stroke-linecap:butt;stroke-linejoin:miter;stroke-opacity:1" />
        <path
           sodipodi:nodetypes="cccsccc"
           inkscape:connector-curvature="0"
           id="path6145"
           d="m 0.1299293,295.83062 0.51971725,0.47247 c 0,0 0.53152905,0.0473 0.82682295,-0.24804 0.2952939,-0.2953 0.2126116,-0.63784 0.4606585,-0.83864 0.2480468,-0.2008 -0.4960938,0.21261 -0.7441407,0.15355 -0.24804683,-0.0591 -0.56696426,-0.25985 -0.82682287,0.0236 -0.25985864,0.28348 -0.23623513,0.43706 -0.23623513,0.43706"
           style="fill:#ffffff;fill-opacity:1;stroke:#000000;stroke-width:0.26458332px;stroke-linecap:butt;stroke-linejoin:miter;stroke-opacity:1" />
      </g>
    </g>
  </g>
</svg>
